<svg width="30" height="30" viewBox="0 0 30 30" fill="none" xmlns="http://www.w3.org/2000/svg">
    <path d="M9.125 25.625C8.5 25.625 7.96875 25.4063 7.53125 24.9688C7.09375 24.5313 6.875 24 6.875 23.375V7.5H6.5625C6.29167 7.5 6.06792 7.41125 5.89125 7.23375C5.71375 7.05708 5.625 6.83333 5.625 6.5625C5.625 6.29167 5.71375 6.06792 5.89125 5.89125C6.06792 5.71375 6.29167 5.625 6.5625 5.625H11.25C11.25 5.3125 11.3592 5.05208 11.5775 4.84375C11.7967 4.63542 12.0625 4.53125 12.375 4.53125H17.625C17.9375 4.53125 18.2033 4.63542 18.4225 4.84375C18.6408 5.05208 18.75 5.3125 18.75 5.625H23.4375C23.7083 5.625 23.9325 5.71375 24.11 5.89125C24.2867 6.06792 24.375 6.29167 24.375 6.5625C24.375 6.83333 24.2867 7.05708 24.11 7.23375C23.9325 7.41125 23.7083 7.5 23.4375 7.5H23.125V23.375C23.125 24 22.9063 24.5313 22.4688 24.9688C22.0313 25.4063 21.5 25.625 20.875 25.625H9.125ZM8.75 7.5V23.375C8.75 23.4792 8.78667 23.5679 8.86 23.6413C8.9325 23.7138 9.02083 23.75 9.125 23.75H20.875C20.9792 23.75 21.0679 23.7138 21.1413 23.6413C21.2138 23.5679 21.25 23.4792 21.25 23.375V7.5H8.75ZM11.75 20.3125C11.75 20.5833 11.8387 20.8075 12.0162 20.985C12.1929 21.1617 12.4167 21.25 12.6875 21.25C12.9583 21.25 13.1825 21.1617 13.36 20.985C13.5367 20.8075 13.625 20.5833 13.625 20.3125V10.9375C13.625 10.6667 13.5367 10.4425 13.36 10.265C13.1825 10.0883 12.9583 10 12.6875 10C12.4167 10 12.1929 10.0883 12.0162 10.265C11.8387 10.4425 11.75 10.6667 11.75 10.9375V20.3125ZM16.375 20.3125C16.375 20.5833 16.4633 20.8075 16.64 20.985C16.8175 21.1617 17.0417 21.25 17.3125 21.25C17.5833 21.25 17.8075 21.1617 17.985 20.985C18.1617 20.8075 18.25 20.5833 18.25 20.3125V10.9375C18.25 10.6667 18.1617 10.4425 17.985 10.265C17.8075 10.0883 17.5833 10 17.3125 10C17.0417 10 16.8175 10.0883 16.64 10.265C16.4633 10.4425 16.375 10.6667 16.375 10.9375V20.3125ZM8.75 7.5V23.375C8.75 23.4792 8.78667 23.5679 8.86 23.6413C8.9325 23.7138 9.02083 23.75 9.125 23.75H8.75C8.75 23.75 8.75 23.7138 8.75 23.6413C8.75 23.5679 8.75 23.4792 8.75 23.375V7.5Z" fill="black"/>
</svg>
