<svg width="30" height="30" viewBox="0 0 30 30" fill="none" xmlns="http://www.w3.org/2000/svg">
    <path fill-rule="evenodd" clip-rule="evenodd" d="M2.86611 9.13386C1.69453 10.3054 1.69453 12.2049 2.86611 13.3765L16.3683 26.8787C17.5398 28.0502 19.4393 28.0502 20.6109 26.8787L27.032 20.4575C28.2036 19.286 28.2036 17.3865 27.0321 16.2149L13.5299 2.71273C12.3583 1.54115 10.4588 1.54115 9.28725 2.71272L2.86611 9.13386ZM3.82465 9.7785C3.0436 10.5595 3.0436 11.8259 3.82465 12.6069L10.963 19.7453L19.9756 10.7327L12.8372 3.59433C12.0562 2.81328 10.7899 2.81328 10.0088 3.59433L3.82465 9.7785Z" fill="black"/>
    <path d="M3.82465 12.6069C3.0436 11.8259 3.0436 10.5595 3.82465 9.7785L10.0088 3.59433C10.7899 2.81328 12.0562 2.81328 12.8372 3.59433L19.9756 10.7327L10.963 19.7453L3.82465 12.6069Z" fill="white"/>
</svg>
