<svg width="30" height="30" viewBox="0 0 30 30" fill="none" xmlns="http://www.w3.org/2000/svg">
    <path d="M6.625 25.625C6 25.625 5.46875 25.4063 5.03125 24.9688C4.59375 24.5313 4.375 24 4.375 23.375V6.625C4.375 6 4.59375 5.46875 5.03125 5.03125C5.46875 4.59375 6 4.375 6.625 4.375H20.0625C20.3542 4.375 20.6408 4.43208 20.9225 4.54625C21.2033 4.66125 21.4479 4.82292 21.6563 5.03125L24.9688 8.34375C25.1771 8.55208 25.3388 8.79667 25.4538 9.0775C25.5679 9.35917 25.625 9.64583 25.625 9.9375V23.375C25.625 24 25.4063 24.5313 24.9688 24.9688C24.5313 25.4063 24 25.625 23.375 25.625H6.625ZM23.75 9.8125L20.1875 6.25H6.625C6.52083 6.25 6.4325 6.28667 6.36 6.36C6.28667 6.4325 6.25 6.52083 6.25 6.625V23.375C6.25 23.4792 6.28667 23.5679 6.36 23.6413C6.4325 23.7138 6.52083 23.75 6.625 23.75H23.375C23.4792 23.75 23.5679 23.7138 23.6413 23.6413C23.7138 23.5679 23.75 23.4792 23.75 23.375V9.8125ZM15 21.5937C15.875 21.5937 16.6146 21.2863 17.2187 20.6713C17.8229 20.0571 18.125 19.3229 18.125 18.4687C18.125 17.5937 17.8229 16.8542 17.2187 16.25C16.6146 15.6458 15.875 15.3437 15 15.3437C14.125 15.3437 13.3854 15.6458 12.7813 16.25C12.1771 16.8542 11.875 17.5937 11.875 18.4687C11.875 19.3229 12.1771 20.0571 12.7813 20.6713C13.3854 21.2863 14.125 21.5937 15 21.5937ZM9.125 12.3438H17.125C17.4375 12.3438 17.7033 12.2396 17.9225 12.0312C18.1408 11.8229 18.25 11.5521 18.25 11.2188V9.125C18.25 8.79167 18.1408 8.51542 17.9225 8.29625C17.7033 8.07792 17.4375 7.96875 17.125 7.96875H9.125C8.79167 7.96875 8.51583 8.07792 8.2975 8.29625C8.07833 8.51542 7.96875 8.79167 7.96875 9.125V11.2188C7.96875 11.5521 8.07833 11.8229 8.2975 12.0312C8.51583 12.2396 8.79167 12.3438 9.125 12.3438ZM6.25 9.8125V23.375C6.25 23.4792 6.25 23.5679 6.25 23.6413C6.25 23.7138 6.25 23.75 6.25 23.75C6.25 23.75 6.25 23.7138 6.25 23.6413C6.25 23.5679 6.25 23.4792 6.25 23.375V6.625C6.25 6.52083 6.25 6.4325 6.25 6.36C6.25 6.28667 6.25 6.25 6.25 6.25V9.8125Z" fill="black"/>
</svg>
