<svg width="30" height="30" viewBox="0 0 30 30" fill="none" xmlns="http://www.w3.org/2000/svg">
    <path d="M15 19.5313C14.7292 19.5313 14.5054 19.4375 14.3288 19.25C14.1513 19.0625 14.0625 18.8438 14.0625 18.5938V9.03125L11.6562 11.4375C11.4687 11.6042 11.25 11.6929 11 11.7038C10.75 11.7138 10.5208 11.6146 10.3125 11.4063C10.125 11.2188 10.0367 10.9946 10.0475 10.7338C10.0575 10.4738 10.1458 10.2604 10.3125 10.0938L14.2188 6.1875C14.3229 6.08333 14.4429 6.005 14.5788 5.9525C14.7138 5.90083 14.8542 5.875 15 5.875C15.1458 5.875 15.2867 5.90083 15.4225 5.9525C15.5575 6.005 15.6771 6.08333 15.7812 6.1875L19.6875 10.0938C19.875 10.2813 19.9638 10.5 19.9538 10.75C19.9429 11 19.8542 11.2188 19.6875 11.4063C19.4792 11.5938 19.25 11.6929 19 11.7038C18.75 11.7138 18.5313 11.625 18.3438 11.4375L15.9375 9.03125V18.5938C15.9375 18.8438 15.8492 19.0625 15.6725 19.25C15.495 19.4375 15.2708 19.5313 15 19.5313ZM7.875 24.375C7.25 24.375 6.71875 24.1563 6.28125 23.7188C5.84375 23.2813 5.625 22.75 5.625 22.125V19.6875C5.625 19.4167 5.71375 19.1925 5.89125 19.015C6.06792 18.8383 6.29167 18.75 6.5625 18.75C6.83333 18.75 7.05708 18.8383 7.23375 19.015C7.41125 19.1925 7.5 19.4167 7.5 19.6875V22.125C7.5 22.2083 7.54167 22.2917 7.625 22.375C7.70833 22.4583 7.79167 22.5 7.875 22.5H22.125C22.2083 22.5 22.2917 22.4583 22.375 22.375C22.4583 22.2917 22.5 22.2083 22.5 22.125V19.6875C22.5 19.4167 22.5883 19.1925 22.765 19.015C22.9425 18.8383 23.1667 18.75 23.4375 18.75C23.7083 18.75 23.9325 18.8383 24.11 19.015C24.2867 19.1925 24.375 19.4167 24.375 19.6875V22.125C24.375 22.75 24.1563 23.2813 23.7188 23.7188C23.2813 24.1563 22.75 24.375 22.125 24.375H7.875Z" fill="black"/>
</svg>
